<svg xmlns="http://www.w3.org/2000/svg" xmlns:xlink="http://www.w3.org/1999/xlink" version="1.1" x="0px" y="0px" viewBox="0 0 100 125" enable-background="new 0 0 100 100" xml:space="preserve"><g><circle cx="31.857" cy="29.097" r="9.989"/><path d="M65.465,54.441c-0.687,0-1.34,0.126-1.945,0.354h0c-0.517,0.194-0.986,0.457-1.461,0.773l-10.803,6.079l-10.053-16.53   c-0.515-0.851-0.961-1.312-1.509-1.872v0h0c-1.002-1.024-2.398-1.661-3.945-1.661c-0.001,0-0.002,0-0.003,0H22.727   c-0.001,0-0.002,0-0.004,0c-2.322,0-4.206,1.883-4.206,4.206v24.289c0,0,9.367,14.323,23.833,16.517c0-2.875,0-15.675,0-15.675   l-7.697-11.402l1.095-0.651l8.868,12.929c0.986,1.503,2.686,2.497,4.618,2.497c0.914,0,1.775-0.224,2.536-0.616l0.002,0   l0.057-0.031c0.027-0.015,0.05-0.029,0.077-0.042l15.707-8.554c0.333-0.144,0.651-0.316,0.95-0.517v0   c1.459-0.994,2.42-2.671,2.42-4.569C70.983,56.911,68.512,54.441,65.465,54.441z"/><polygon points="56.725,52.188 50.075,44.492 43.557,46.346 48.287,54.508  "/><polygon points="50.006,37.368 64.702,28.54 63.123,26.036 45.318,36.979 55.425,48.942  "/><polygon points="57.284,50.706 72.027,40.874 66.743,28.447 51.602,37.542  "/><path d="M58.025,51.726l4.898,2.283c0,0,3.177-1.466,5.916-0.042c2.816,1.562,3.081,3.901,3.081,3.901l2.796,1.37l13.447-11.5   l-15.022-6.154L58.025,51.726z"/></g><text x="0" y="115" fill="#000000" font-size="5px" font-weight="bold" font-family="'Helvetica Neue', Helvetica, Arial-Unicode, Arial, Sans-serif">Created by Vicons Design</text><text x="0" y="120" fill="#000000" font-size="5px" font-weight="bold" font-family="'Helvetica Neue', Helvetica, Arial-Unicode, Arial, Sans-serif">from the Noun Project</text></svg>